<?xml version="1.0" encoding="utf-8" ?><svg xmlns="http://www.w3.org/2000/svg" xmlns:xlink="http://www.w3.org/1999/xlink" width="743" height="666" viewBox="0 0 743 666"><path fill="#19B5FB" d="M365.525 16.0652C372.791 15.201 380.809 16.0011 387.563 18.8464C392.687 21.0055 397.461 24.2041 402.226 27.0517C408.116 30.5719 414.074 33.9839 420.005 37.4342L499.878 84.7153L549.107 113.569C556.815 118.115 565.351 122.395 572.455 127.815C579.114 132.851 583.464 140.355 584.524 148.635C585.463 156.123 583.326 162.784 578.709 168.691C576.288 171.788 573.453 174.191 570.2 176.372C560.025 183.192 549.212 189.149 538.674 195.392L483.63 228.151L422.264 264.726C412.35 270.59 402.412 277.227 392.126 282.392C387.262 284.835 382.74 286.115 377.352 286.799C369.486 288.283 359.555 286.011 352.328 282.913C345.004 279.774 338.146 274.968 331.229 271.009C311.531 259.539 291.915 247.93 272.381 236.184L204.432 195.992C194.345 190.017 183.817 184.465 174.047 177.991C166.045 172.688 160.201 166.258 158.319 156.578C156.75 148.509 158.763 141.14 163.404 134.44C165.899 130.837 169.033 128.175 172.672 125.763C183.024 118.902 194.212 113.042 204.91 106.714L275.355 65.3516L324.226 36.5373C333.155 31.2342 342 25.4257 351.254 20.7132C355.951 18.3219 360.352 16.9816 365.525 16.0652ZM441.367 232.016C431.13 225.587 420.418 219.774 409.993 213.638L349.349 177.738L328.713 165.702C323.722 162.796 318.549 159.97 313.893 156.54C311.913 155.082 309.389 152.966 308.902 150.446C308.54 148.577 309.405 146.61 310.503 145.141C314.418 139.902 324.675 135.293 330.482 131.985C338.871 127.145 347.21 122.152 355.701 117.498C354.272 110.45 355.293 103.451 359.318 97.3863C363.722 90.7515 370.906 86.1688 378.693 84.65C387.601 82.8535 396.857 84.736 404.356 89.8691C409.983 93.6757 414.079 99.3417 415.341 106.069C416.747 113.293 415.16 120.779 410.943 126.811C406.281 133.59 398.054 138.372 390.004 139.754C382.464 141.051 374.717 139.294 368.475 134.871C367.374 134.091 366.328 133.235 365.345 132.31C357.683 137.905 344.798 144.149 336.109 148.932C346.621 155.988 358.061 162.074 368.996 168.477L428.811 203.614C438.462 209.318 450.278 215.276 459.104 221.857C484.448 206.478 509.868 191.227 535.365 176.105C543.483 171.203 556.092 165.011 562.941 159.169C565.363 157.103 566.296 154.622 567.188 151.681C565.538 145.322 562.796 142.459 557.244 139.195L438.806 69.4359L403.701 48.6746C396.966 44.6367 390.232 39.957 383.147 36.6069C379.081 34.6838 374.128 33.2855 369.591 33.8845C366.505 34.0891 362.979 34.7148 360.212 36.1348C352.44 40.1221 345.033 45.0833 337.501 49.5201L281.821 82.6889L207.763 126.196C202.914 129.077 198.118 132.109 193.216 134.892C190.201 136.604 187.007 138.082 184.083 139.943C182.222 141.127 180.361 142.601 178.908 144.265C177.044 146.399 175.773 148.901 175.969 151.799C176.205 155.274 178.219 158.595 180.894 160.763C186.083 164.967 194.541 169.033 200.555 172.675C220.474 184.737 240.709 196.309 260.778 208.122L326.641 246.93C337.323 253.255 347.819 260.667 359.019 265.992C363.387 268.069 369.48 269.237 374.285 268.696C377.477 268.337 380.598 267.36 383.53 266.071C389.908 263.265 395.946 259.214 401.918 255.644L428.312 239.879C432.657 237.275 436.94 234.47 441.367 232.016ZM386.906 122.284C390.718 121.541 393.845 120.358 396.142 116.985C397.626 114.807 398.299 112.231 397.763 109.624C397.206 106.912 395.399 104.536 393.064 103.09C390.487 101.494 387.72 101.237 384.772 101.294C380.694 101.947 376.928 103.292 374.474 106.859C373.047 108.933 372.584 111.394 373.146 113.848C373.762 116.541 375.544 118.807 377.886 120.23C380.518 121.828 383.869 122.407 386.906 122.284Z"/><path fill="#19B5FB" d="M471.864 128.493C475.323 128.301 478.611 128.621 481.835 129.978C486.183 131.81 489.388 135.206 491.121 139.566C492.892 144.021 493.011 148.817 491.016 153.234C489.037 157.615 485.418 160.674 480.931 162.289C476.064 164.041 470.579 164.215 465.862 161.962C457.008 168.621 442.296 178.063 432.596 183.12C431.024 183.895 429.422 184.56 427.679 184.837C423.628 185.482 419.775 184.045 416.509 181.739C414.743 180.492 412.454 178.817 412.068 176.587C412.369 175.376 412.629 175.034 413.56 174.183C416.619 171.386 420.762 169.236 424.269 167.01C430.837 162.858 437.382 158.67 443.905 154.447C447.388 152.187 451.084 150.021 454.345 147.451L454.692 147.174C455.337 143.369 456.145 139.551 458.319 136.287C461.559 131.422 466.373 129.603 471.864 128.493Z"/><path fill="#576168" d="M170.33 215.148C171.596 215.076 173.114 214.829 174.258 215.435C175.849 218.517 174.674 226.576 174.729 230.311C174.788 234.3 175.522 237.523 178.505 240.392C182.943 244.66 197.504 252.131 203.415 255.566L257.388 286.984L321.301 324.606C333.222 331.673 345.09 339.606 357.552 345.671C362.397 348.03 367.976 349.552 373.398 349.399C378.294 349.261 383.382 347.591 387.708 345.368C400.321 338.887 412.426 330.94 424.629 323.704L496.465 281.151L539.875 255.509C547.221 251.212 557.469 246.47 563.7 240.967C571.037 234.487 564.965 218.759 568.955 215.496C569.791 214.813 571.034 214.802 572.031 215.047C576.224 216.077 579.302 218.279 581.445 222.052C585.188 228.64 585.264 236.342 583.236 243.506C582.809 244.766 582.278 245.989 581.65 247.162C579.697 250.894 577.073 253.783 573.643 256.198C562.252 264.216 549.669 270.892 537.684 277.992L475.302 315.057L425.613 344.517L405.435 356.488C399.309 360.102 392.917 364.353 386.082 366.46C372.867 370.535 359.587 367.811 347.665 361.498C334.888 354.731 322.544 346.906 310.053 339.609L233.659 294.745C219.916 286.779 206.217 278.738 192.564 270.621C184.646 265.992 175.995 261.662 168.723 256.101C164.228 252.663 160.565 248.392 158.923 242.889C157.083 236.723 157.425 228.658 160.545 222.947C162.769 218.876 165.886 216.424 170.33 215.148Z"/><path fill="#78B243" d="M171.378 296.065L173.474 295.992C177.199 298.525 172.362 313.585 177.565 320.362C179.132 322.401 181.315 323.984 183.469 325.351C191.673 330.558 200.339 335.194 208.693 340.172L280.725 382.593L329.609 411.596C337.026 415.956 344.396 420.609 352.017 424.587C356.816 427.093 361.78 429.556 367.227 430.167C373.698 430.892 380.453 429.613 386.369 426.953C393.02 423.963 399.384 419.991 405.65 416.264L431.639 400.639L497.546 361.443L540.33 336.135C547.144 332.137 556.524 327.539 562.559 322.626C570.298 316.326 566.358 307.993 567.345 299.658C567.492 298.412 567.845 296.822 569.036 296.146C570.007 295.594 571.235 295.799 572.23 296.158C576.797 297.805 580.827 302.477 582.878 306.75C585.871 312.983 585.343 318.949 583.08 325.29C581.192 329.276 578.954 332.95 575.375 335.636C569.158 340.302 562.35 344.086 555.662 348.018L536.745 359.324L469.519 399.305L424.231 426.128C413.934 432.366 403.071 440.099 392.05 444.79C379.662 450.128 365.651 450.282 353.149 445.217C341.357 440.427 326.629 430.673 315.448 424.005L260.842 391.819L200.28 356.087C189.435 349.699 177.777 343.847 167.662 336.337C164.046 333.651 161.354 330.097 159.63 325.94C157.198 320.077 157.12 312.953 159.583 307.087C161.924 301.513 165.9 298.307 171.378 296.065Z"/><path fill="#181717" d="M120.196 482.547C129.769 482.068 138.881 483.043 146.733 489.059C153.845 494.509 157.659 502.838 158.775 511.581C159.54 517.58 159.311 523.684 159.317 529.718C159.328 542.617 160.372 556.43 151.847 567.186C146.104 574.431 138.262 577.789 129.252 578.806C120.78 579.518 112.314 578.142 105.187 573.31C98.0839 568.494 93.6345 560.894 92.0315 552.547C90.6357 545.278 90.6692 515.94 92.0876 508.674C92.9946 504.029 94.7305 499.603 97.438 495.706C103.048 487.633 110.771 484.192 120.196 482.547ZM127.773 563.251C132.814 562.315 136.734 560.458 139.7 556.157C141.265 553.888 142.129 551.377 142.576 548.675C143.455 543.355 143.508 517.49 142.428 512.026C141.535 507.506 139.283 503.19 135.339 500.61C131.887 498.352 126.962 497.551 122.891 498.156C118.141 498.884 114.085 500.403 111.122 504.442C109.45 506.72 108.453 509.426 107.953 512.191C106.972 517.603 106.981 543.767 107.926 549.007C108.736 553.495 111.022 557.835 114.827 560.481C118.406 562.97 123.481 563.832 127.773 563.251Z"/><path fill="#181717" d="M263.641 483.206C269.129 483.221 274.617 483.183 280.105 483.092L275.271 503.516C269.003 528.275 263.296 553.24 257.512 578.119L242.071 578.154L225.203 513.19C222.57 520.961 220.654 529.083 218.5 537.001L207.337 578.134L191.81 578.123C187.269 558.029 182.294 538.028 177.554 517.98C174.829 506.452 172.643 494.524 169.286 483.178L185.882 483.227C186.512 487.646 187.654 492.058 188.587 496.43L193.615 520.109L197.451 538.228C198.314 542.299 198.935 546.627 200.489 550.499C202.072 542.459 204.68 534.458 206.857 526.553L218.804 483.183L230.697 483.225C233.966 497.066 238.281 510.846 242.044 524.569C243.882 531.27 246.792 544.859 249.695 550.662C250.265 543.148 252.641 535.203 254.208 527.827L263.641 483.206Z"/><path fill="#181717" d="M659.567 483.157C671.152 483.395 700.727 481.778 709.709 485.037C715.836 487.261 720.667 491.595 723.416 497.515C726.85 504.91 727.152 515.062 724.241 522.67C721.206 530.601 715.682 534.641 708.167 537.958C716.043 550.913 723.112 564.805 730.358 578.157C724.983 578.217 717.664 578.94 712.491 578.098C711.382 577.917 711.146 577.546 710.523 576.657C704.038 564.077 697.126 551.716 690.702 539.106C685.632 539.023 680.548 539.141 675.477 539.184L675.515 578.297C670.232 578.004 664.872 578.19 659.58 578.205C659.818 564.202 659.614 550.159 659.615 536.152C659.616 518.492 659.769 500.815 659.567 483.157ZM675.468 523.871C681.894 523.937 697 524.971 702.577 523.225C704.185 522.721 705.25 521.855 706.461 520.716C709.513 517.001 709.986 512.891 709.521 508.269C709.238 505.45 708.1 502.769 705.905 500.914C700.531 496.37 682.806 498.663 675.501 498.335L675.468 523.871Z"/><path fill="#181717" d="M458.562 483.324L469.69 483.378C482.077 514.753 493.088 546.682 505.366 578.097C499.679 578.129 493.958 578.288 488.278 577.973C486.584 572.018 484.313 566.07 482.222 560.239C477.921 560.06 473.578 560.166 469.273 560.159L445.922 560.144L439.734 578.121L422.742 578.103L447.95 511.004L454.481 493.411C455.687 490.149 456.743 486.283 458.562 483.324ZM451.046 545.033C455.549 545.119 460.053 545.152 464.556 545.131L477.045 545.136C475.459 540.674 465.425 509.818 463.761 508.393C461.424 515.714 458.817 522.958 456.302 530.219C454.596 535.144 453.05 540.224 451.046 545.033Z"/><path fill="#181717" d="M579.996 483.155C587.843 483.519 595.772 483.298 603.626 483.276L642.458 483.149C641.941 488.025 642.218 493.531 642.384 498.435C626.902 497.976 611.288 498.373 595.792 498.375L595.781 523.383C608.897 523.531 622.022 523.418 635.139 523.408C635.302 528.504 635.207 533.619 635.195 538.717C622.083 538.263 608.933 538.81 595.814 538.575L595.802 562.931L642.366 562.968C642.243 568.005 642.16 573.173 642.439 578.202C635.08 577.902 627.632 578.131 620.265 578.131L579.999 578.107L579.996 483.155Z"/><path fill="#181717" d="M499.005 483.253C504.39 483.627 509.97 483.358 515.374 483.381C518.229 488.58 520.587 494.107 523.086 499.486C527.047 507.958 530.961 516.45 534.83 524.964C541.436 511.174 547.361 496.963 554.302 483.347C559.909 483.253 565.512 483.462 571.12 483.26C565.376 495.385 559.22 507.349 553.261 519.373C550.202 525.595 545.23 533.829 543.287 540.238C541.926 544.726 542.696 571.64 542.841 578.166L527.111 578.098L527.158 554.614C527.162 550.215 527.621 545.231 526.71 540.924C525.653 535.926 522.05 530.458 519.75 525.855L507.875 501.979C505.844 497.891 499.759 487.258 499.005 483.253Z"/><path fill="#181717" d="M354.007 483.166C359.339 483.213 364.672 483.199 370.004 483.122C369.665 492.147 369.956 501.279 369.957 510.315L369.967 562.942L416.457 562.97C416.389 568.046 416.402 573.123 416.496 578.199C409.339 577.871 402.061 578.127 394.888 578.128L354.038 578.099L354.007 483.166Z"/><path fill="#181717" d="M19.2112 483.169C24.4974 483.224 29.7879 483.165 35.0745 483.148L35.1104 562.952L81.6591 562.971C81.6493 568.03 81.5023 573.136 81.8176 578.184C61.049 577.526 40.0524 578.139 19.2631 578.104L19.2112 483.169Z"/><path fill="#181717" d="M288.949 536.553L334.053 536.429C334.104 541.539 334.094 546.65 334.024 551.759C319.05 551.326 303.887 551.4 288.91 551.764C288.713 546.712 288.772 541.606 288.949 536.553Z"/></svg>