<?xml version="1.0" encoding="utf-8" ?><svg xmlns="http://www.w3.org/2000/svg" xmlns:xlink="http://www.w3.org/1999/xlink" width="436" height="446" viewBox="0 0 436 446"><path fill="#19B6FB" d="M213.989 5.87495C221.213 6.12764 226.732 5.78864 233.646 8.84921C239.392 11.3929 244.839 14.9816 250.229 18.2102C256.059 21.7025 261.971 25.0662 267.843 28.4902L348.468 76.2714C351.778 78.2344 355.198 79.999 358.513 81.9455L399.743 106.312C406.443 110.333 414.034 113.976 420.016 119.008C426.087 124.115 429.981 132.02 430.672 139.883C431.316 147.199 428.745 153.969 424.046 159.549C417.456 167.375 396 178.726 386.344 184.396L358.375 200.97L302.396 234.37C285.566 244.405 268.853 254.694 251.826 264.392C247.945 266.602 244.282 269.323 240.315 271.356C234.161 274.51 228.196 276.491 221.284 277.065C212.743 277.058 205.367 276.1 197.471 272.55C192.973 270.528 188.806 267.74 184.543 265.272C176.139 260.408 167.773 255.539 159.457 250.524L104.531 217.948L45.2323 182.943C35.6614 177.293 22.1017 170.522 13.9574 163.501C8.02659 158.388 4.35879 150.704 3.85998 142.934C3.35323 135.039 6.45457 127.33 11.7096 121.469C16.5897 116.027 24.1849 112.309 30.4471 108.651L47.8543 98.5046L125.419 52.9743L173.814 24.395C181.916 19.6178 189.94 14.2293 198.378 10.0842C203.263 7.68408 208.537 6.14785 213.989 5.87495ZM175.607 122.468C179.015 120.507 199.84 109.147 201.307 107.181C201.581 104.951 200.938 102.644 201.019 100.382C201.303 92.4102 205.758 85.2096 211.918 80.3493C218.494 75.1608 227.581 73.1423 235.824 74.2102C243.717 75.2328 251.864 79.495 256.724 85.8658C260.808 91.1921 262.595 97.93 261.686 104.58C260.611 112.384 256.559 118.914 250.264 123.586C243.416 128.667 234.852 131.143 226.374 129.798C220.695 128.897 215.572 126.153 211.33 122.33C207.251 125.385 202.527 127.659 198.064 130.1C192.742 133.011 187.479 136.029 182.141 138.911C186.12 141.771 190.556 144.117 194.784 146.592L214.929 158.418L274.745 193.578C281.046 197.212 287.318 200.896 293.561 204.629C297.46 206.945 301.546 209.099 305.129 211.895C314.15 205.848 323.814 200.608 333.132 195.02L381.126 166.143C387.421 162.383 393.841 158.846 400.11 155.031C402.811 153.388 405.709 151.788 408.178 149.808C410.352 148.063 412.266 145.642 412.822 142.851C413.344 140.235 412.076 137.405 410.61 135.29C409.11 133.125 407.328 131.758 405.133 130.353C401.674 128.139 398.008 126.243 394.477 124.146C386.245 119.183 377.974 114.287 369.663 109.458L312.896 76.1188L252.408 40.2862C245.251 36.088 238.267 31.4145 230.953 27.5086C228.016 25.9404 224.85 24.6742 221.557 24.1069C220.1 23.8558 217.913 23.6056 216.462 23.8631C212.368 24.0516 208.561 24.9265 204.912 26.8181C198.555 30.1132 192.521 34.2691 186.329 37.8826L130.099 71.3813L52.6028 116.965L39.6017 124.627C34.7382 127.442 28.9843 129.836 25.1362 134.028C23.1729 136.167 21.8531 138.676 21.9831 141.655C22.1403 145.257 24.1554 148.338 26.7902 150.67C30.1025 153.601 38.6218 157.839 42.8067 160.384C62.6614 172.307 82.6135 184.066 102.661 195.662L174.557 238.055C184.319 243.778 194.292 250.78 204.431 255.685C209.045 257.917 214.671 259.068 219.813 258.709C223.865 258.426 227.457 257.077 231.092 255.36C235.864 253.105 285.795 223.362 286.977 222.007C286.08 220.866 269.268 211.432 266.844 210.02L195.504 167.837L175.659 156.231C169.984 152.966 163.705 149.761 158.633 145.602C156.649 143.975 154.447 141.534 154.852 138.781C155.329 135.54 158.218 132.958 160.756 131.188C165.391 127.954 170.661 125.202 175.607 122.468ZM232.782 112.277C236.737 111.534 239.84 110.359 242.2 106.922C243.669 104.786 244.411 102.235 243.847 99.6515C243.247 96.9022 241.284 94.5052 238.918 93.0494C236.552 91.594 233.428 90.976 230.681 91.3188C226.61 91.9746 222.863 93.3913 220.401 96.9231C219.046 98.8666 218.587 101.062 219.029 103.388C219.555 106.056 221.116 108.407 223.371 109.928C226.098 111.753 229.561 112.362 232.782 112.277Z"/><path fill="#19B6FB" d="M320.974 118.38C323.547 118.49 326.361 119.24 328.678 120.365C333.013 122.47 336.009 126.144 337.549 130.676C339.024 135.017 338.89 139.699 336.815 143.827C334.648 148.138 331.041 150.879 326.499 152.351C321.675 153.915 316.413 154.271 311.809 151.913C308.663 154.556 304.853 156.759 301.42 159.025C296.654 162.211 291.815 165.285 286.907 168.246C283.511 170.33 280.165 172.514 276.485 174.071C275.136 174.681 273.577 174.958 272.102 175.017C267.366 175.206 262.895 172.478 259.561 169.332C258.823 168.635 257.963 167.594 257.998 166.516C258.034 165.374 259.376 164.258 260.2 163.57C263.627 160.706 267.988 158.438 271.774 156.05L291.332 143.495C294.338 141.567 298.234 139.618 300.654 137.03C300.721 136.959 300.786 136.886 300.852 136.814C301.182 132.202 302.873 127.429 306.109 124.062C310.044 119.967 315.448 118.511 320.974 118.38Z"/><path fill="#576168" d="M17.185 205.087C18.1786 205.011 19.108 204.842 20.0445 205.256C20.372 205.581 20.6446 205.854 20.7583 206.315C21.3514 208.72 20.5542 218.421 20.7089 221.817C20.8519 224.96 22.0916 228.221 24.4649 230.365C28.3955 233.916 33.5697 236.366 38.1477 238.978L51.1549 246.571L104.491 277.606L166.859 314.343L186.317 325.924C192.054 329.355 197.768 332.883 203.788 335.806C208.399 338.045 214.356 339.71 219.524 339.419C224.133 339.159 229.209 337.691 233.317 335.605C240.449 331.983 247.412 327.567 254.263 323.437L277.514 309.6L348.112 267.802L388.841 243.749C394.171 240.633 405.331 235.083 409.389 231.288C417.305 223.884 411.266 208.996 414.514 205.393C416.187 204.689 418.376 205.137 420.055 205.696C423.867 206.966 426.38 209.74 428.143 213.267C431.202 219.39 431.28 227.401 429.114 233.81C428.372 236.049 427.219 238.157 425.864 240.082C423.938 242.816 421.621 244.888 418.863 246.75C412.333 251.159 405.577 255.047 398.8 259.049L376.854 272.045L324.001 303.461L270.848 334.964C260.78 340.963 250.791 347.5 240.371 352.867C235.885 355.178 231.54 356.901 226.523 357.724C218.386 359.059 209.174 358.286 201.526 355.234C191.341 351.169 181.049 344.304 171.56 338.677C156.925 330.165 142.334 321.577 127.788 312.914L61.263 273.978L34.6435 258.312C28.4574 254.699 21.9289 251.299 16.0959 247.132C10.1483 242.883 5.45362 237.484 4.27298 230.062C3.22778 223.491 3.90387 216.286 7.90994 210.785C10.2482 207.574 13.2764 205.709 17.185 205.087Z"/><path fill="#78B243" d="M414.904 285.794C415.94 285.802 416.946 285.948 417.929 286.284C422.966 288.006 426.622 291.973 428.901 296.673C431.559 302.153 431.597 308.319 429.564 314.006C427.837 318.837 425.036 322.804 420.973 325.936C414.723 330.755 407.566 334.595 400.766 338.583L379.944 350.951L321.622 385.695L271.337 415.47L252.426 426.953C248.428 429.349 244.402 431.882 240.181 433.862C227.913 439.615 213.87 440.613 201.063 435.97C193.518 433.235 186.658 428.881 179.781 424.816L161.849 414.254L110.808 384.127L48.9097 347.625L31.7889 337.623C26.2029 334.398 20.5892 331.244 15.3109 327.523C11.3618 324.739 8.38494 321.789 6.30695 317.359C4.45615 314.692 3.90407 310.404 3.83729 307.252C3.71655 301.553 5.29184 295.18 9.42184 291.004C11.4775 288.925 15.9828 285.703 19.048 285.855C19.8007 285.892 20.3628 286.298 20.6296 287C21.9179 290.393 20.3845 300.476 21.1691 305.007C21.5588 307.257 22.4809 309.587 24.1126 311.223C27.5677 314.688 33.2073 317.559 37.4642 320.081C43.646 323.734 49.8468 327.354 56.0664 330.943L111.011 363.28L169.403 397.92L185.392 407.319C190.419 410.298 195.452 413.395 200.704 415.962C206.229 418.662 211.162 420.415 217.38 420.341C222.734 420.279 228.01 419.051 232.842 416.743C241.721 412.426 250.212 407.152 258.653 402.047L282.363 387.817L347.882 348.845L385.249 326.756C390.564 323.652 406.447 315.14 409.911 311.479C414.621 306.502 413.532 299.857 413.349 293.597C413.278 291.146 412.909 287.858 414.733 285.966C414.789 285.908 414.847 285.851 414.904 285.794Z"/></svg>